<svg xmlns="http://www.w3.org/2000/svg" xmlns:xlink="http://www.w3.org/1999/xlink" width="500" zoomAndPan="magnify" viewBox="0 0 375 374.999991" height="500" preserveAspectRatio="xMidYMid meet" version="1.0"><defs><g/><clipPath id="2e5c8aa66b"><path d="M 0 91.160156 L 375 91.160156 L 375 313 L 0 313 Z M 0 91.160156 " clip-rule="nonzero"/></clipPath></defs><g clip-path="url(#2e5c8aa66b)"><path fill="#ffdcba" d="M 521.746094 130.695312 C 537.148438 129.925781 552.472656 128.746094 567.84375 127.808594 C 598.65625 126.113281 629.152344 123.300781 659.792969 120.953125 C 658.300781 128.804688 656.890625 136.96875 661.328125 143.726562 C 661.328125 143.726562 666.070312 143.113281 671.9375 141.976562 C 677.816406 140.917969 684.875 139.644531 689.582031 138.792969 C 729.394531 150.382812 723.914062 177.652344 706.4375 199.605469 C 701.894531 204.242188 696.761719 209.472656 690.929688 214.820312 C 686.015625 214.929688 681.101562 215.035156 676.238281 215.144531 C 654.09375 215.746094 632.28125 216.8125 610.273438 218.660156 C 588.402344 219.992188 566.445312 221.769531 544.195312 223.742188 C 499.769531 227.195312 486.613281 231.09375 438.589844 231.699219 C 371.214844 230.640625 505.492188 226.460938 438.589844 231.699219 C 518.03125 228.914062 388.882812 237.402344 469.703125 232.992188 C 489.9375 231.980469 477.71875 230.96875 497.816406 229.960938 C 517.964844 229.230469 538.023438 228.5 557.964844 227.777344 C 577.980469 227.054688 597.792969 226.976562 617.660156 226.660156 C 637.578125 226.195312 657.257812 226.339844 677.027344 226.527344 C 662.132812 237.710938 644.085938 247.183594 622.199219 250.347656 C 570.011719 253.761719 518.550781 257.125 467.523438 260.460938 C 467.289062 256.71875 427.640625 263.535156 392.578125 265.777344 C 357.53125 267.773438 323.011719 260.898438 288.253906 261.703125 C 218.710938 263.539062 80.273438 285.050781 79.3125 287.527344 C 78.960938 287.5625 78.621094 287.589844 78.296875 287.617188 C 78.621094 287.589844 78.960938 287.5625 79.3125 287.527344 C 78.449219 289.703125 79.105469 291.292969 88.03125 290.667969 C 79.105469 291.292969 78.449219 289.707031 79.3125 287.527344 C 220.316406 273.964844 319.941406 267.527344 461.71875 260.890625 C 351.765625 268.230469 276.699219 276.882812 168.546875 285.847656 C 60.417969 294.753906 -48.332031 303.777344 -160.488281 310.644531 C -170.039062 311.226562 -189.171875 312.390625 -198.738281 312.972656 C -237.390625 304.113281 -275.808594 302.632812 -313.96875 304.808594 C -305.085938 285.679688 -344.613281 250.738281 -267.917969 253.757812 C -268.050781 250.046875 -268.316406 242.613281 -268.449219 238.902344 C -307.058594 231.839844 -333.632812 215.640625 -342.101562 198.964844 C -345.996094 190.675781 -345.507812 182.046875 -338.515625 174.371094 C -331.25 166.644531 -319.121094 159.917969 -300.113281 155.101562 C -214.820312 135.324219 -99.871094 143.261719 4.625 128.785156 C 80.710938 119.984375 156.699219 110.828125 233.113281 112.351562 C 338.308594 115.386719 419.746094 102 524.640625 105.332031 C 543.652344 105.023438 569.421875 99.992188 592.910156 96.269531 C 616.285156 92.292969 637.148438 89.097656 647.039062 93.367188 C 660.941406 96.765625 662.277344 104.542969 661.0625 113.601562 C 630.101562 117.320312 599.316406 121.578125 568.257812 124.523438 C 552.765625 126.089844 537.347656 127.867188 521.871094 129.195312 C 506.394531 130.472656 490.953125 131.742188 475.558594 133.011719 " fill-opacity="1" fill-rule="nonzero"/></g><g fill="#222222" fill-opacity="1"><g transform="translate(15.916172, 265.036824)"><g><path d="M -8.09375 18.75 C -7.382812 11.644531 -4.117188 7.023438 1.703125 4.890625 C 7.523438 2.765625 15.832031 1.703125 26.625 1.703125 C 30.882812 -7.390625 35.003906 -19.460938 38.984375 -34.515625 C 42.960938 -49.566406 47.648438 -68.882812 53.046875 -92.46875 C 53.753906 -95.59375 55.492188 -103.082031 58.265625 -114.9375 C 61.035156 -126.800781 63.414062 -135.429688 65.40625 -140.828125 C 54.1875 -140.535156 45.34375 -140.101562 38.875 -139.53125 C 32.414062 -138.96875 25.28125 -137.976562 17.46875 -136.5625 C 18.46875 -142.101562 22.410156 -146.222656 29.296875 -148.921875 C 36.179688 -151.617188 46.726562 -152.96875 60.9375 -152.96875 C 70.164062 -152.96875 80 -152.46875 90.4375 -151.46875 C 100.875 -150.476562 109.644531 -149.488281 116.75 -148.5 C 113.769531 -145.507812 110.539062 -143.515625 107.0625 -142.515625 C 103.582031 -141.523438 99.921875 -141.03125 96.078125 -141.03125 C 85.003906 -141.03125 77.265625 -140.960938 72.859375 -140.828125 L 71.375 -133.15625 C 62.5625 -84.289062 56.023438 -51.410156 51.765625 -34.515625 C 49.359375 -24.859375 46.734375 -17.007812 43.890625 -10.96875 C 41.046875 -4.9375 37.707031 -0.640625 33.875 1.921875 C 40.550781 2.347656 47.441406 2.984375 54.546875 3.828125 C 64.910156 5.109375 73.429688 5.820312 80.109375 5.96875 C 73.992188 12.070312 65.96875 15.125 56.03125 15.125 L 45.59375 15.125 C 32.519531 15.269531 22.21875 15.519531 14.6875 15.875 C 7.164062 16.226562 -0.425781 17.1875 -8.09375 18.75 Z M -8.09375 18.75 "/></g></g></g><g fill="#222222" fill-opacity="1"><g transform="translate(113.70284, 265.036824)"><g><path d="M 11.71875 18.53125 C 13.5625 8.164062 16.113281 -3.117188 19.375 -15.328125 C 22.644531 -27.546875 27.90625 -44.734375 35.15625 -66.890625 L 21.09375 -65.40625 C 21.226562 -71.65625 27.125 -75.988281 38.78125 -78.40625 C 44.03125 -94.445312 50.066406 -112.269531 56.890625 -131.875 C 57.023438 -132.300781 57.550781 -133.863281 58.46875 -136.5625 C 59.394531 -139.257812 59.859375 -141.890625 59.859375 -144.453125 C 59.859375 -145.585938 59.679688 -146.363281 59.328125 -146.78125 C 58.972656 -147.207031 58.160156 -147.421875 56.890625 -147.421875 C 52.484375 -147.421875 48.253906 -145.148438 44.203125 -140.609375 C 40.160156 -136.066406 36.859375 -130.597656 34.296875 -124.203125 C 31.742188 -117.816406 30.46875 -112.207031 30.46875 -107.375 C 30.46875 -104.675781 30.820312 -102.257812 31.53125 -100.125 C 27.125 -100.125 23.890625 -101.222656 21.828125 -103.421875 C 19.773438 -105.628906 18.75 -108.582031 18.75 -112.28125 C 18.75 -118.382812 21.125 -124.664062 25.875 -131.125 C 30.632812 -137.59375 36.421875 -142.921875 43.234375 -147.109375 C 50.054688 -151.296875 56.097656 -153.390625 61.359375 -153.390625 C 64.910156 -153.390625 67.429688 -152.429688 68.921875 -150.515625 C 70.410156 -148.597656 71.15625 -146.148438 71.15625 -143.171875 C 71.15625 -140.753906 70.585938 -137.695312 69.453125 -134 L 52.828125 -79.890625 C 57.941406 -80.171875 62.0625 -80.3125 65.1875 -80.3125 C 76.269531 -80.3125 88.34375 -79.675781 101.40625 -78.40625 C 105.8125 -93.03125 110.035156 -106.378906 114.078125 -118.453125 C 118.128906 -130.523438 121.078125 -138.476562 122.921875 -142.3125 C 126.335938 -149.695312 130.242188 -153.390625 134.640625 -153.390625 C 131.804688 -145.867188 128.363281 -135.144531 124.3125 -121.21875 C 120.257812 -107.300781 116.25 -92.742188 112.28125 -77.546875 C 113.695312 -77.546875 115.96875 -77.40625 119.09375 -77.125 C 123.351562 -76.84375 126.40625 -76.703125 128.25 -76.703125 C 125.414062 -73.710938 122.644531 -71.828125 119.9375 -71.046875 C 117.238281 -70.265625 114.046875 -69.875 110.359375 -69.875 C 107.378906 -57.664062 105.175781 -47.9375 103.75 -40.6875 C 99.0625 -18.394531 96.71875 -1.210938 96.71875 10.859375 C 96.71875 13.421875 96.863281 15.976562 97.15625 18.53125 C 91.75 17.96875 87.945312 16.441406 85.75 13.953125 C 83.550781 11.460938 82.453125 7.453125 82.453125 1.921875 C 82.453125 -6.316406 84.15625 -17.039062 87.5625 -30.25 C 89.832031 -39.625 93.597656 -52.765625 98.859375 -69.671875 C 87.492188 -69.671875 77.867188 -69.5625 69.984375 -69.34375 C 62.097656 -69.132812 55.175781 -68.742188 49.21875 -68.171875 C 37 -29.679688 29.398438 -5.320312 26.421875 4.90625 C 24.992188 9.445312 22.859375 12.851562 20.015625 15.125 C 17.179688 17.394531 14.414062 18.53125 11.71875 18.53125 Z M 11.71875 18.53125 "/></g></g></g><g fill="#222222" fill-opacity="1"><g transform="translate(245.150275, 265.036824)"><g><path d="M 46.65625 18.53125 C 37.144531 18.53125 29.226562 16.113281 22.90625 11.28125 C 16.582031 6.457031 11.960938 0.109375 9.046875 -7.765625 C 6.140625 -15.648438 4.6875 -24.210938 4.6875 -33.453125 C 4.6875 -51.628906 9.160156 -70.054688 18.109375 -88.734375 C 27.054688 -107.410156 38.347656 -122.820312 51.984375 -134.96875 C 65.617188 -147.113281 79.039062 -153.1875 92.25 -153.1875 C 98.351562 -153.1875 103.144531 -151.691406 106.625 -148.703125 C 110.101562 -145.722656 111.84375 -141.109375 111.84375 -134.859375 C 111.84375 -129.316406 110.566406 -122.921875 108.015625 -115.671875 C 105.460938 -108.429688 102.265625 -102.253906 98.421875 -97.140625 C 94.585938 -92.035156 90.828125 -89.484375 87.140625 -89.484375 C 84.296875 -89.484375 82.09375 -91.113281 80.53125 -94.375 C 85.789062 -100.34375 90.90625 -107.585938 95.875 -116.109375 C 100.84375 -124.628906 103.328125 -131.660156 103.328125 -137.203125 C 103.328125 -140.179688 102.472656 -142.523438 100.765625 -144.234375 C 99.066406 -145.941406 96.441406 -146.796875 92.890625 -146.796875 C 83.085938 -146.796875 72.578125 -140.4375 61.359375 -127.71875 C 50.140625 -115.007812 40.726562 -99.421875 33.125 -80.953125 C 25.53125 -62.492188 21.734375 -45.453125 21.734375 -29.828125 C 21.734375 -18.179688 24.21875 -8.414062 29.1875 -0.53125 C 34.15625 7.351562 41.679688 11.296875 51.765625 11.296875 C 59.015625 11.296875 66.398438 9.195312 73.921875 5 C 81.453125 0.8125 88.34375 -4.757812 94.59375 -11.71875 C 100.84375 -18.675781 105.882812 -26.273438 109.71875 -34.515625 L 112.703125 -32.390625 C 105.035156 -17.328125 95.484375 -5.078125 84.046875 4.359375 C 72.609375 13.804688 60.144531 18.53125 46.65625 18.53125 Z M 46.65625 18.53125 "/></g></g></g><g fill="#222222" fill-opacity="1"><g transform="translate(192.632335, 365.487388)"><g/></g></g></svg>